PathFileType	4	(X/Y/Z)	s10c0203.trc
DataRate	CameraRate	NumFrames	NumMarkers	Units	OrigDataRate	OrigDataStartFrame	OrigNumFrames
200	200	4	49	mm	200	750	2000
Frame#	Time	racr			lacr			c7			jug			rlel			rdr			llel			ldr			s2			lic			ric			lasi			rasi			rpsi			lpsi			rgt			lgt			rth1			rth2			rth3			rth4			rlfc			rmfc			rsh1			rsh2			rsh3			rsh4			rlmal			rmmal			rcal			rtoe			rmt5			lth1			lth2			lth4			lth3			llfc			lmfc			llmal			lcal			lmt5			lsh1			lsh2			lsh3			lsh4			ltoe			SBIKE			LBIKE			RBIKE			
		X1	Y1	Z1	X2	Y2	Z2	X3	Y3	Z3	X4	Y4	Z4	X5	Y5	Z5	X6	Y6	Z6	X7	Y7	Z7	X8	Y8	Z8	X9	Y9	Z9	X10	Y10	Z10	X11	Y11	Z11	X12	Y12	Z12	X13	Y13	Z13	X14	Y14	Z14	X15	Y15	Z15	X16	Y16	Z16	X17	Y17	Z17	X18	Y18	Z18	X19	Y19	Z19	X20	Y20	Z20	X21	Y21	Z21	X22	Y22	Z22	X23	Y23	Z23	X24	Y24	Z24	X25	Y25	Z25	X26	Y26	Z26	X27	Y27	Z27	X28	Y28	Z28	X29	Y29	Z29	X30	Y30	Z30	X31	Y31	Z31	X32	Y32	Z32	X33	Y33	Z33	X34	Y34	Z34	X35	Y35	Z35	X36	Y36	Z36	X37	Y37	Z37	X38	Y38	Z38	X39	Y39	Z39	X40	Y40	Z40	X41	Y41	Z41	X42	Y42	Z42	X43	Y43	Z43	X44	Y44	Z44	X45	Y45	Z45	X46	Y46	Z46	X47	Y47	Z47	X48	Y48	Z48	X49	Y49	Z49	
750	3.7500	480.510967	1238.250386	-118.654801	425.162087	1236.978720	-412.045811	409.738338	1295.101626	-247.697278	405.073481	1145.894180	-241.862974	446.859218	1024.928307	49.910964	599.244279	909.779157	-34.196974	412.246728	992.112184	-549.884099	589.695327	911.132602	-439.888840	-102.356937	1088.952062	-203.989138	46.251475	1118.997718	-349.567601	82.871592	1093.216488	-71.486547	92.043209	1035.315888	-336.703462	90.904963	1018.683773	-75.794768	-57.140839	1144.385145	-142.808184	-59.901734	1157.784602	-253.154441	-27.761249	985.879872	-22.237514	-24.981578	993.646709	-404.153505	55.371150	860.163913	-0.562236	126.929550	808.169107	-13.722984	160.864653	730.315807	-20.669367	154.294213	832.676795	-18.565678	222.406181	641.696611	-34.699576	223.531888	639.625867	-151.306464	139.908696	559.607599	-11.464909	112.347578	477.335482	-30.455080	48.509375	419.697605	-39.723791	139.176939	465.240106	-55.399593	-10.838843	339.566710	-59.479070	20.543174	339.535186	-138.365850	-58.710447	352.457264	-109.988454	118.777881	186.170960	-100.226469	37.898375	217.583142	-40.516512	84.828110	923.254433	-412.158812	170.326011	922.022388	-397.648783	179.163049	955.473432	-386.069359	245.763474	875.676114	-394.888919	358.251387	832.540996	-375.081170	353.173549	823.010215	-251.722649	176.777956	503.562002	-384.258321	118.419476	463.399342	-340.679802	290.679811	423.743446	-407.307192	288.728876	734.353246	-405.440053	277.359043	647.402753	-394.923645	221.277629	578.897481	-395.148312	303.676378	638.603745	-368.834349	362.467244	462.197547	-356.099802	-217.566591	830.974997	-213.381565	-103.929333	80.547763	-418.371084	-103.917239	80.490581	-18.334591	
751	3.7550	479.000512	1236.004335	-118.008439	425.783285	1236.490563	-411.886976	410.001280	1293.150710	-248.128235	404.890416	1143.915894	-242.776897	446.619467	1024.054058	51.122550	598.612161	909.520835	-34.362042	412.321200	991.458348	-550.150079	589.504485	910.989070	-439.901282	-102.088160	1087.675311	-202.018453	45.130339	1118.571590	-350.154376	83.668600	1092.106645	-72.072802	91.352710	1034.304099	-337.595962	90.301915	1018.507065	-77.537816	-57.935442	1143.519794	-140.355721	-60.523179	1156.648993	-251.648727	-25.853738	984.760919	-20.793448	-26.674961	991.597822	-402.986800	58.663121	860.762824	0.476630	130.256772	809.134618	-13.546537	164.398267	731.495711	-20.915389	157.484642	833.725538	-18.909552	226.082921	643.572781	-35.565927	223.945859	641.825001	-152.302584	142.205368	562.940718	-11.883359	112.745513	481.299861	-31.040381	47.705611	424.994841	-39.933140	139.033447	468.941414	-56.412961	-14.068969	346.634903	-59.621913	17.095136	345.949782	-138.538672	-61.894269	360.713932	-109.588361	113.998858	192.007083	-100.200935	33.409560	224.187763	-40.534003	83.473967	920.515791	-410.892415	169.170381	918.619989	-397.410040	178.360381	952.237300	-386.243024	244.271113	871.476725	-394.865131	356.370448	825.586374	-375.645024	351.800816	816.726417	-252.725640	180.510727	494.817413	-383.899404	122.363521	454.620181	-340.952230	295.159143	416.823801	-407.355902	288.729807	727.529123	-405.290559	279.304119	640.475542	-394.180878	225.093696	570.450679	-394.326247	305.579416	632.495259	-367.815259	366.532132	456.199640	-356.232233	-217.540466	830.963646	-213.301985	-103.942377	80.535975	-418.361626	-103.915669	80.496546	-18.337547	
752	3.7600	477.329113	1233.797363	-117.040436	426.520373	1236.048361	-411.788953	410.356134	1291.373540	-248.151102	404.623430	1141.966911	-243.728235	445.991363	1023.031071	52.355167	598.116481	909.429812	-34.111407	412.374853	991.019683	-550.349344	589.282456	910.846211	-439.952631	-101.746290	1086.387984	-200.191577	44.070920	1118.206995	-350.935607	84.504833	1091.003481	-72.710017	90.778106	1033.456637	-338.481825	90.970472	1017.803640	-78.109247	-57.482970	1142.165585	-139.354842	-61.029349	1155.639429	-250.437201	-23.944609	983.823428	-19.328118	-28.326865	989.359680	-401.795361	61.877431	861.364870	0.890082	133.444890	810.202442	-13.304646	167.829996	732.601218	-21.100483	160.403792	834.946305	-18.908595	229.724259	645.530135	-36.449438	224.333887	643.904457	-153.294588	144.393060	566.484580	-12.305662	113.121793	485.513450	-31.604753	46.919084	430.667441	-40.063953	138.921966	472.819443	-57.319654	-17.017236	353.766082	-59.706329	14.134032	352.670462	-138.763627	-64.738063	367.699405	-110.161594	109.491594	198.022071	-100.189600	29.161747	231.014764	-40.542493	82.637234	917.910979	-409.691259	168.571991	915.597050	-397.426338	178.160184	949.468304	-387.018252	243.560140	867.939119	-394.571193	354.757577	819.730563	-375.380431	351.268825	810.432091	-254.014948	184.186589	486.755089	-384.168767	125.987946	446.181046	-341.264239	299.403046	409.903109	-407.387731	288.784538	721.057559	-405.174254	281.144744	633.841715	-393.659635	228.117516	563.199848	-394.970820	307.388423	626.557481	-367.134595	370.498414	449.685567	-356.263344	-217.525497	830.957115	-213.262264	-103.940494	80.546802	-418.366239	-103.922760	80.491028	-18.320912	
753	3.7650	475.435991	1231.814667	-115.745836	427.396880	1235.561578	-411.619997	410.681997	1289.974328	-248.204194	403.988164	1140.115714	-245.190773	445.336369	1022.070653	53.788351	597.615140	909.372583	-33.708812	412.488795	990.614575	-550.651532	589.060556	910.741519	-440.056878	-101.354847	1085.195722	-198.531670	43.027093	1117.790116	-351.926703	85.238611	1090.207687	-73.387564	90.182580	1032.817382	-339.540073	92.106435	1016.488055	-80.333661	-57.101218	1141.544767	-138.435532	-61.451194	1154.684918	-249.265319	-22.000944	983.069851	-18.075198	-29.839412	986.874836	-400.682575	64.911839	862.141014	1.628143	136.525248	811.395094	-13.217518	171.164779	733.830378	-21.445223	163.272945	836.276491	-19.308399	233.274020	647.552498	-37.449706	224.645948	645.839621	-154.051031	146.588420	570.307433	-12.767829	113.534399	490.053471	-32.055229	46.162917	436.547813	-40.172231	138.815838	476.946802	-58.116844	-19.811958	361.200533	-59.863528	11.326679	359.704305	-138.882682	-67.619540	376.079605	-109.742870	105.348958	204.399261	-100.127880	25.275747	237.951737	-40.589319	82.185293	915.496890	-408.731697	168.349095	912.576007	-397.401908	178.195407	946.565987	-387.207311	243.155402	864.533303	-394.588945	353.224208	814.429186	-375.316452	350.723964	804.256247	-254.667598	187.820226	478.702585	-383.945853	129.749439	438.005604	-341.263052	303.435516	402.753813	-407.290290	289.028488	714.660700	-405.295268	282.855730	627.307933	-393.530797	231.184372	555.731719	-394.967243	309.011900	620.604836	-366.722304	374.299840	442.937741	-356.083209	-217.507203	830.953132	-213.247871	-103.937615	80.557646	-418.377670	-103.889536	80.444762	-18.326184	
